<svg width="3486" height="1752" xmlns="http://www.w3.org/2000/svg" xmlns:xlink="http://www.w3.org/1999/xlink" xml:space="preserve" overflow="hidden"><defs><clipPath id="clip0"><rect x="444" y="217" width="3486" height="1752"/></clipPath></defs><g clip-path="url(#clip0)" transform="translate(-444 -217)"><rect x="444" y="217" width="3486" height="1752" fill="#FFFFFF"/><path d="M1970.5 525C1970.5 437.463 2041.24 366.5 2128.5 366.5 2215.76 366.5 2286.5 437.463 2286.5 525 2286.5 612.537 2215.76 683.5 2128.5 683.5 2041.24 683.5 1970.5 612.537 1970.5 525Z" stroke="#000000" stroke-width="6.875" stroke-miterlimit="8" fill="none" fill-rule="evenodd"/><text font-family="Aptos,Aptos_MSFontService,sans-serif" font-weight="400" font-size="83" transform="matrix(1 0 0 1 2089.26 551)">V</text><text font-family="Aptos,Aptos_MSFontService,sans-serif" font-weight="400" font-size="55" transform="matrix(1 0 0 1 2137.39 571)">1</text><path d="M3.92099e-06-3.4375 293.475-3.43717 293.475 3.43783-3.92099e-06 3.4375ZM288.891-13.7497 316.391 0.000360892 288.891 13.7503Z" transform="matrix(-1 0 0 1 2297.89 295.5)"/><path d="M582.5 1538C582.5 1450.46 653.463 1379.5 741 1379.5 828.537 1379.5 899.5 1450.46 899.5 1538 899.5 1625.54 828.537 1696.5 741 1696.5 653.463 1696.5 582.5 1625.54 582.5 1538Z" stroke="#000000" stroke-width="6.875" stroke-miterlimit="8" fill="none" fill-rule="evenodd"/><text font-family="Aptos,Aptos_MSFontService,sans-serif" font-weight="400" font-size="83" transform="matrix(1 0 0 1 701.788 1564)">V</text><text font-family="Aptos,Aptos_MSFontService,sans-serif" font-weight="400" font-size="55" transform="matrix(1 0 0 1 749.913 1584)">2</text><path d="M3.4375-3.92099e-06 3.43783 293.475-3.43717 293.475-3.4375 3.92099e-06ZM13.7503 288.891 0.000360892 316.391-13.7497 288.891Z" transform="matrix(1 0 0 -1 523.5 1688.89)"/><rect x="1027.5" y="1106.5" width="398" height="119" stroke="#042433" stroke-width="6.875" stroke-miterlimit="8" fill="none"/><text font-family="Aptos,Aptos_MSFontService,sans-serif" font-weight="400" font-size="83" transform="matrix(1 0 0 1 1186.29 1192)">R</text><text font-family="Aptos,Aptos_MSFontService,sans-serif" font-weight="400" font-size="55" transform="matrix(1 0 0 1 1236.13 1212)">1</text><path d="M3471.5 1538C3471.5 1450.46 3542.46 1379.5 3630 1379.5 3717.54 1379.5 3788.5 1450.46 3788.5 1538 3788.5 1625.54 3717.54 1696.5 3630 1696.5 3542.46 1696.5 3471.5 1625.54 3471.5 1538Z" stroke="#000000" stroke-width="6.875" stroke-miterlimit="8" fill="none" fill-rule="evenodd"/><text font-family="Aptos,Aptos_MSFontService,sans-serif" font-weight="400" font-size="83" transform="matrix(1 0 0 1 3590.7 1564)">V</text><text font-family="Aptos,Aptos_MSFontService,sans-serif" font-weight="400" font-size="55" transform="matrix(1 0 0 1 3638.83 1584)">3</text><path d="M3.4375-3.92099e-06 3.43783 293.475-3.43717 293.475-3.4375 3.92099e-06ZM13.7503 288.891 0.000360892 316.391-13.7497 288.891Z" transform="matrix(1 0 0 -1 3851.5 1688.89)"/><rect x="2930.5" y="1106.5" width="398" height="119" stroke="#042433" stroke-width="6.875" stroke-miterlimit="8" fill="none"/><text font-family="Aptos,Aptos_MSFontService,sans-serif" font-weight="400" font-size="83" transform="matrix(1 0 0 1 3089.46 1192)">R</text><text font-family="Aptos,Aptos_MSFontService,sans-serif" font-weight="400" font-size="55" transform="matrix(1 0 0 1 3139.3 1212)">4</text><rect x="1667.5" y="1338.5" width="119" height="399" stroke="#042433" stroke-width="6.875" stroke-miterlimit="8" fill="none"/><text font-family="Aptos,Aptos_MSFontService,sans-serif" font-weight="400" font-size="83" transform="matrix(6.12323e-17 1 -1 6.12323e-17 1700 1498)">R</text><text font-family="Aptos,Aptos_MSFontService,sans-serif" font-weight="400" font-size="55" transform="matrix(6.12323e-17 1 -1 6.12323e-17 1679.99 1548)">2</text><rect x="2569.5" y="1338.5" width="119" height="399" stroke="#042433" stroke-width="6.875" stroke-miterlimit="8" fill="none"/><text font-family="Aptos,Aptos_MSFontService,sans-serif" font-weight="400" font-size="83" transform="matrix(6.12323e-17 1 -1 6.12323e-17 2602.11 1498)">R</text><text font-family="Aptos,Aptos_MSFontService,sans-serif" font-weight="400" font-size="55" transform="matrix(6.12323e-17 1 -1 6.12323e-17 2582.11 1548)">3</text><path d="M740.5 1379.98 740.5 1166.5 1026.84 1166.5" stroke="#000000" stroke-width="6.875" stroke-miterlimit="8" fill="none" fill-rule="evenodd"/><path d="M740.5 1380.19 740.5 525.5 1969.78 525.5" stroke="#000000" stroke-width="6.875" stroke-miterlimit="8" fill="none" fill-rule="evenodd"/><path d="M0 0 204.973 0 204.973 986.032 40.8245 986.032" stroke="#000000" stroke-width="6.875" stroke-miterlimit="8" fill="none" fill-rule="evenodd" transform="matrix(1.83697e-16 1 1 -1.83697e-16 740.5 1696.5)"/><path d="M0 0 166.73 0 166.73 902.113 4.58333 902.113" stroke="#000000" stroke-width="6.875" stroke-miterlimit="8" fill="none" fill-rule="evenodd" transform="matrix(1.83697e-16 1 1 -1.83697e-16 1729.5 1734.5)"/><path d="M2629.5 1737.32 2629.5 1901.47 3630.27 1901.47 3630.27 1696.5" stroke="#000000" stroke-width="6.875" stroke-miterlimit="8" fill="none" fill-rule="evenodd"/><path d="M1425.5 1166.5 1727.15 1166.5 1727.15 1339.15" stroke="#000000" stroke-width="6.875" stroke-miterlimit="8" fill="none" fill-rule="evenodd"/><path d="M0 0 301.366 0 301.366 172.655" stroke="#000000" stroke-width="6.875" stroke-miterlimit="8" fill="none" fill-rule="evenodd" transform="matrix(-1 1.22465e-16 1.22465e-16 1 2930.87 1166.5)"/><path d="M3328.5 1166.5 3629.87 1166.5 3629.87 1379.98" stroke="#000000" stroke-width="6.875" stroke-miterlimit="8" fill="none" fill-rule="evenodd"/><path d="M2286.5 525.5 3629.75 525.5 3629.75 1380.19" stroke="#000000" stroke-width="6.875" stroke-miterlimit="8" fill="none" fill-rule="evenodd"/><path d="M1425.5 1166.5 2930.63 1166.5" stroke="#000000" stroke-width="6.875" stroke-miterlimit="8" fill="none" fill-rule="evenodd"/><path d="M1384.82 1617.25C1335.52 1700.54 1228.04 1728.11 1144.75 1678.81 1061.46 1629.52 1033.89 1522.04 1083.18 1438.75 1132.48 1355.46 1239.96 1327.89 1323.25 1377.18 1358.93 1398.3 1385.97 1431.39 1399.56 1470.56L1418.82 1470.52 1409.24 1527.71 1380.31 1470.59 1399.56 1470.56C1367.84 1379.12 1267.99 1330.71 1176.56 1362.44 1085.12 1394.16 1036.71 1494.01 1068.44 1585.44 1100.16 1676.88 1200.01 1725.29 1291.44 1693.56 1330.61 1679.97 1363.7 1652.93 1384.82 1617.25Z" stroke="#000000" stroke-width="4.58333" stroke-miterlimit="8" fill-rule="evenodd"/><text font-family="Aptos,Aptos_MSFontService,sans-serif" font-weight="400" font-size="83" transform="matrix(1 0 0 1 1208.27 1554)">I</text><text font-family="Aptos,Aptos_MSFontService,sans-serif" font-weight="400" font-size="55" transform="matrix(1 0 0 1 1229.46 1574)">2</text><path d="M2326.75 1611.71C2277.34 1694.73 2169.79 1722.08 2086.54 1672.82 2003.28 1623.55 1975.84 1516.31 2025.25 1433.29 2074.66 1350.27 2182.21 1322.92 2265.46 1372.18 2301.02 1393.23 2327.97 1426.12 2341.56 1465.06L2360.76 1465.03 2351.29 1522.21 2322.35 1465.09 2341.56 1465.06C2309.74 1373.88 2209.83 1325.69 2118.39 1357.41 2026.96 1389.14 1978.63 1488.77 2010.44 1579.94 2042.26 1671.12 2142.17 1719.31 2233.61 1687.59 2272.65 1674.04 2305.64 1647.16 2326.75 1611.71Z" stroke="#000000" stroke-width="4.58333" stroke-miterlimit="8" fill-rule="evenodd"/><text font-family="Aptos,Aptos_MSFontService,sans-serif" font-weight="400" font-size="83" transform="matrix(1 0 0 1 2150.35 1548)">I</text><text font-family="Aptos,Aptos_MSFontService,sans-serif" font-weight="400" font-size="55" transform="matrix(1 0 0 1 2171.55 1568)">3</text><path d="M3279.93 1619.52C3230.76 1702.6 3123.56 1730.09 3040.48 1680.93 2957.4 1631.76 2929.91 1524.56 2979.07 1441.48 3028.24 1358.4 3135.44 1330.91 3218.52 1380.07 3254.11 1401.13 3281.08 1434.13 3294.64 1473.2L3313.84 1473.17 3304.29 1530.21 3275.43 1473.24 3294.64 1473.2C3262.99 1382 3163.41 1333.72 3072.2 1365.36 2981 1397.01 2932.72 1496.59 2964.36 1587.8 2996.01 1679 3095.59 1727.28 3186.8 1695.64 3225.87 1682.08 3258.87 1655.11 3279.93 1619.52Z" stroke="#000000" stroke-width="4.58333" stroke-miterlimit="8" fill-rule="evenodd"/><text font-family="Aptos,Aptos_MSFontService,sans-serif" font-weight="400" font-size="83" transform="matrix(1 0 0 1 3104.05 1556)">I</text><text font-family="Aptos,Aptos_MSFontService,sans-serif" font-weight="400" font-size="55" transform="matrix(1 0 0 1 3125.25 1576)">4</text><path d="M2278.93 1001.52C2229.76 1084.6 2122.56 1112.09 2039.48 1062.93 1956.4 1013.76 1928.91 906.559 1978.07 823.48 2027.24 740.401 2134.44 712.908 2217.52 762.073 2253.11 783.134 2280.08 816.133 2293.64 855.205L2312.84 855.172 2303.29 912.207 2274.43 855.237 2293.64 855.205C2261.99 764.002 2162.41 715.72 2071.2 747.363 1980 779.006 1931.72 878.593 1963.36 969.795 1995.01 1061 2094.59 1109.28 2185.8 1077.64 2224.87 1064.08 2257.87 1037.11 2278.93 1001.52Z" stroke="#000000" stroke-width="4.58333" stroke-miterlimit="8" fill-rule="evenodd"/><text font-family="Aptos,Aptos_MSFontService,sans-serif" font-weight="400" font-size="83" transform="matrix(1 0 0 1 2102.73 939)">I</text><text font-family="Aptos,Aptos_MSFontService,sans-serif" font-weight="400" font-size="55" transform="matrix(1 0 0 1 2123.92 959)">1</text></g></svg>